<svg width="138" height="70" viewBox="0 0 138 70" fill="none" xmlns="http://www.w3.org/2000/svg">
<path d="M138 0H0L59.51 65.68C64.73 71.441 73.27 71.441 78.49 65.68L138 0Z" fill="#81B3D3"/>
<path d="M36.687 0.457L68.835 38.336L100.855 0.686L36.687 0.457Z" fill="#23A9E1"/>
<path fill-rule="evenodd" clip-rule="evenodd" d="M78.42 14.719H61.1C60.8194 14.5918 60.4384 14.4492 60.012 14.2896C57.8142 13.467 54.4115 12.1934 57.347 10.252C58.8166 9.31859 59.8717 9.46836 60.869 9.60993C61.9583 9.76457 62.9786 9.90941 64.395 8.622C66.9745 6.28128 70.6699 9.9095 71.9353 11.1519C72.196 11.4079 72.3536 11.5626 72.377 11.543C73.6265 10.5022 75.6307 12.3043 77.1108 13.6352C77.6301 14.1022 78.0849 14.5112 78.42 14.719ZM87.83 11.241L77.97 11.295C81.866 6.795 83.617 7.277 87.83 11.241Z" fill="white"/>
<path fill-rule="evenodd" clip-rule="evenodd" d="M40.011 3.06V1.153L38.407 1.154L40.011 3.06ZM97.622 3.588V1.154H99.702L97.622 3.588ZM48.377 12.998L48.467 13.081L48.4757 13.0718C48.6345 12.9034 50.9069 10.4943 54.45 8.117C57.817 5.858 63.042 3.173 68.833 3.205C74.611 3.233 79.91 5.927 83.339 8.182C87.004 10.592 89.366 13.022 89.471 13.132L86.956 16.077C85.0821 16.3342 83.4303 17.0644 81.8233 17.7747C79.5817 18.7657 77.4273 19.718 74.879 19.294C73.0797 18.9953 72.7047 18.0974 72.2848 17.092C72.1901 16.8652 72.0931 16.633 71.977 16.401C71.6286 15.7035 71.131 15.5718 70.504 15.4058C70.2599 15.3412 69.9962 15.2714 69.714 15.161C69.4884 15.0729 69.2856 14.9618 69.0817 14.85C68.4388 14.4977 67.7842 14.139 66.363 14.473C65.6362 14.6434 65.1958 15.2376 64.7536 15.8344C64.1967 16.5858 63.6367 17.3414 62.498 17.26C61.8556 17.2137 61.5626 16.6649 61.112 15.8208C60.7938 15.2248 60.397 14.4815 59.743 13.664C55.6532 8.74921 51.8513 9.42894 49.1963 13.9714L48.377 12.998ZM49.1963 13.9714L68.834 37.302L49.196 13.972L49.1963 13.9714ZM93.887 1.153H97.114V4.183L93.887 7.96V1.153ZM89.832 1.154V12.61C89.8478 12.6248 89.8632 12.6402 89.878 12.656L93.378 8.558V1.154H89.832ZM89.324 2.221V12.115C88.1956 11.0533 87.0081 10.0564 85.767 9.129L89.324 2.221ZM85.159 8.682V1.863L81.5 6.33C82.294 6.778 83.03 7.232 83.694 7.67C84.209 8.009 84.696 8.348 85.159 8.682ZM80.847 1.73V5.97C79.8336 5.42431 78.7921 4.9323 77.727 4.496L80.847 1.73ZM85.082 1.154H81.355V5.704L85.082 1.154ZM85.667 1.154H89.3L85.666 8.214L85.667 1.154ZM80.73 1.154H76.87H76.869V4.16C76.913 4.17638 76.9572 4.19245 77.0015 4.20851L77.0016 4.20856C77.0681 4.23268 77.1346 4.2568 77.2 4.282L80.73 1.154ZM76.361 1.571V3.974C75.3471 3.6143 74.3117 3.31806 73.261 3.087L76.361 1.571ZM72.158 2.873V1.613L69.979 2.621C70.7092 2.6678 71.4364 2.75191 72.158 2.873ZM65.392 1.574L67.64 2.616C66.878 2.659 66.128 2.746 65.392 2.869V1.574ZM64.337 3.069L61.272 1.571L61.271 3.944C62.254 3.597 63.277 3.298 64.337 3.069ZM64.882 2.771L61.578 1.154H64.883L64.882 2.771ZM65.694 1.154L68.448 2.429V1.154H65.694ZM69.057 1.154H71.938L69.057 2.488V1.154ZM76.056 1.154H72.816V2.738L76.056 1.154ZM60.405 4.265L56.895 1.155H60.764V4.13L60.405 4.265ZM59.88 4.479L56.787 1.738V5.968C57.7902 5.4158 58.8227 4.91873 59.88 4.479ZM52.475 1.866L56.115 6.346C54.8539 7.07473 53.6383 7.87955 52.475 8.756V1.866ZM51.896 9.198L48.31 2.224V12.349C49.4377 11.2241 50.6354 10.1717 51.896 9.198ZM51.966 8.224L48.332 1.154H51.966V8.224ZM52.552 1.154L56.278 5.739V1.154H52.552ZM43.747 7.497L40.52 3.664V1.154H43.747V7.497ZM47.8 1.154H44.255L44.254 8.102L47.8 12.314V1.154Z" fill="#491213"/>
<path d="M66.227 46.026L68.837 41.806L71.435 46.026L68.837 50.256L66.227 46.026Z" fill="#23A9E1"/>
<path fill-rule="evenodd" clip-rule="evenodd" d="M52.88 11.718C51.097 12.272 49.999 14.73 52.623 14.839H52.624C52.516 13.171 52.99 12.465 53.136 14.491C53.5687 14.471 54.0179 14.4591 54.4747 14.4469C56.1166 14.4034 57.8555 14.3572 59.27 13.923C58.13 12.832 54.575 11.19 52.88 11.718ZM58.793 22.985C53.197 22.939 56.98 14.337 58.884 14.857C61.074 15.553 60.828 23.051 58.793 22.985ZM61.333 20.13C61.223 22.102 62.211 21.799 62.756 20.175V20.174C62.7593 20.5328 62.7199 20.8944 62.6814 21.2468C62.5793 22.1831 62.4841 23.0555 63.215 23.644C64.539 24.713 67.08 23.247 67.911 22.152C66.314 21.532 68.259 17.765 69.457 17.191C68.225 19.772 66.805 23.617 70.025 23.617C68.393 23.617 71.327 16.871 71.343 16.925C71.1569 16.3081 70.6943 16.2415 70.1421 16.162C69.7329 16.1032 69.2746 16.0372 68.843 15.735C67.2609 14.6278 66.4343 15.5809 65.6311 16.507C65.2809 16.9108 64.9351 17.3095 64.533 17.53C64.0529 17.7928 63.5826 17.9267 63.1565 18.048C62.1706 18.3288 61.421 18.5422 61.333 20.13ZM74.218 30.556C70.785 28.536 71.654 27.033 74.448 25.631C74.8082 25.4501 75.2795 25.1532 75.806 24.8216C77.4161 23.8072 79.5418 22.4681 80.581 23.132L74.218 30.556ZM70.6742 33.0045L70.6739 33.0045C68.9673 32.8993 67.1802 32.7893 65.622 33.128C66.829 33.43 69.773 34.293 67.032 35.022C68.015 36.429 69.61 36.339 70.656 35.104C70.4001 34.9781 70.2149 34.8349 70.0312 34.6928L70.0311 34.6928C69.9098 34.5989 69.789 34.5055 69.649 34.418C70.734 34.222 71.749 33.596 71.884 33.073C71.4882 33.0546 71.0835 33.0297 70.6742 33.0045ZM70.373 31.499C71.242 30.659 72.186 30.703 73.119 31.499H73.118C72.644 32.881 64.059 32.393 62.994 29.779C63.5184 29.8582 64.2011 29.8662 64.9431 29.8748C67.0017 29.8989 69.5167 29.9282 70.373 31.499ZM66.345 29.348C65.8943 29.2083 65.136 29.1189 64.367 29.0283C62.4656 28.8041 60.4991 28.5722 62.957 27.554C64.022 27.113 69.55 27.617 66.345 29.348ZM68.257 26.318C67.78 25.241 68.622 23.958 69.997 24.89C71.196 25.703 69.445 26.907 68.257 26.318ZM65.421 26.409C63.156 27.088 60.148 25.625 63.791 24.889C66.052 24.433 68.457 25.395 65.421 26.409Z" fill="#DC6243"/>
<path d="M71.774 25.832C68.866 22.845 76.116 23.12 77.284 22.069C78.134 22.353 84.274 16.692 85.769 17.044C84.695 18.304 82.381 22.326 80.722 22.326C79.447 22.326 78.157 22.136 77.17 23.044C75.726 24.374 73.333 25.05 71.774 25.832Z" fill="#F49774"/>
<path d="M72.727 22.18C71.135 23.036 69.629 19.644 72.378 19.974C74.204 20.194 76.054 19.82 77.798 20.121C76.547 21.608 74.742 22.427 72.727 22.18Z" fill="#F4B1A4"/>
<path fill-rule="evenodd" clip-rule="evenodd" d="M39.265 14.483C39.626 15.702 40.849 16.149 41.996 15.809C42.0322 15.8493 42.0549 15.9116 42.0762 15.9699L42.0762 15.9699C42.086 15.997 42.0956 16.0232 42.106 16.046C42.0064 16.0843 41.8223 16.1636 41.6023 16.2585L41.6022 16.2585L41.6022 16.2585L41.6022 16.2585L41.6022 16.2585C40.9896 16.5225 40.0981 16.9066 39.973 16.861C39.7561 16.4283 39.4148 16.1086 39.0713 15.7869C38.8321 15.5628 38.5919 15.3378 38.392 15.073C37.826 14.325 37.495 13.422 37.584 12.476C37.726 10.731 39.482 8.807 41.346 9.071C42.266 9.204 43.034 9.858 43.606 10.554C43.7685 10.7433 43.9097 10.9418 44.0491 11.1377C44.3457 11.5544 44.6337 11.9591 45.099 12.238C44.541 12.95 43.983 13.66 43.423 14.371C43.0925 14.2249 43.193 13.997 43.3028 13.7479C43.3336 13.6781 43.3651 13.6067 43.388 13.535C43.551 13.018 43.673 12.43 43.449 11.91C42.939 10.736 41.544 10.696 40.609 11.366C39.663 12.044 38.912 13.292 39.265 14.483ZM47.69 16.404C47.8067 16.3788 47.8955 16.4207 47.9743 16.458C48.0894 16.5123 48.1833 16.5567 48.312 16.368L46.722 14.474C46.481 14.187 46.176 13.879 46.263 14.486C46.321 14.895 42.294 18.163 42.048 18.264C41.9132 18.3197 41.8026 18.2758 41.7018 18.2359C41.571 18.1841 41.4568 18.1388 41.328 18.327C41.5289 18.5655 41.7294 18.8042 41.9299 19.0429L41.9303 19.0433L41.9317 19.0451L41.9323 19.0457L41.9331 19.0467L41.9332 19.0468L41.9333 19.0469L41.9334 19.0471L41.9335 19.0472L41.9337 19.0473L41.9338 19.0475L41.9339 19.0476L41.9343 19.0481L41.9344 19.0483L41.9345 19.0484L41.9346 19.0485L41.9348 19.0487L41.9349 19.0488C42.2069 19.3726 42.479 19.6965 42.752 20.02C42.8035 20.0812 42.8539 20.1441 42.9044 20.2072C43.0108 20.3401 43.1177 20.4737 43.237 20.593C43.4258 20.7818 43.39 20.3246 43.3823 20.2273L43.3823 20.2273L43.3823 20.2272C43.3811 20.2112 43.3806 20.2049 43.382 20.213C43.3286 19.9168 43.6408 19.6601 43.8604 19.4796L43.8604 19.4796C43.8877 19.4572 43.9135 19.436 43.937 19.416C44.941 18.532 47.442 16.437 47.69 16.404ZM51.113 20.935C51.446 21.336 51.691 21.769 51.636 22.309C51.6231 22.4367 51.5485 22.5942 51.4729 22.7539C51.3265 23.063 51.1762 23.3804 51.461 23.507L52.916 21.667C52.526 21.569 49.434 17.871 49.384 17.466L47.333 18.592C47.403 18.8751 47.7464 18.7859 48.0762 18.7002C48.2462 18.656 48.4125 18.6128 48.536 18.622C49.074 18.66 49.462 18.985 49.804 19.369C49.6985 19.4576 49.5786 19.5584 49.4479 19.6684L49.4436 19.672L49.4431 19.6724L49.443 19.6725L49.4429 19.6725C48.1852 20.7305 45.9265 22.6306 45.666 22.674C45.6181 22.6816 45.5255 22.6421 45.4224 22.5982C45.2117 22.5083 44.9574 22.3999 44.952 22.637C44.9491 22.7623 45.2509 23.0609 45.4523 23.2601L45.4523 23.2601L45.4524 23.2602C45.5242 23.3312 45.5832 23.3896 45.611 23.423L47.058 25.145C47.2779 25.0447 47.235 24.9115 47.1852 24.757C47.1441 24.6297 47.0984 24.4879 47.191 24.338C47.3101 24.145 49.2458 22.512 50.409 21.5306L50.409 21.5305L50.4091 21.5305L50.4097 21.53C50.7111 21.2757 50.9605 21.0653 51.113 20.935ZM64.9615 36.5156L64.9615 36.5156L64.9614 36.5154C64.7668 36.2637 64.6168 36.0697 64.539 35.977L64.326 35.724C64.319 35.714 64.141 35.869 64.166 35.848C64.1126 35.8928 64.1297 35.9795 64.1492 36.0783C64.1705 36.1867 64.1948 36.3097 64.132 36.408C63.617 37.214 60.394 39.644 60.227 39.76C60.0532 39.8807 59.871 39.8608 59.7053 39.8428C59.5278 39.8235 59.3692 39.8062 59.26 39.966C59.3991 40.131 59.6154 40.4017 59.8547 40.7012L59.8548 40.7012C60.419 41.4073 61.1112 42.2734 61.22 42.291C61.437 42.3259 61.3979 42.0542 61.3681 41.8463C61.3551 41.7561 61.3439 41.678 61.356 41.642C61.4312 41.4165 62.8751 40.2125 63.5418 39.6566L63.66 39.558C63.8457 39.4021 64.0394 39.7121 64.1731 39.9261L64.1731 39.9261C64.1963 39.9633 64.2178 39.9976 64.237 40.026C64.449 40.341 64.544 40.676 64.43 41.045C64.4077 41.1163 64.3576 41.198 64.3061 41.2819C64.1844 41.4802 64.0551 41.691 64.268 41.807C64.4389 41.6072 64.7415 41.2542 65.0455 40.8996L65.052 40.8919L65.0552 40.8882L65.06 40.8827C65.4663 40.4087 65.8714 39.9361 65.964 39.827C66.0849 39.6869 65.8281 39.7409 65.71 39.7657L65.71 39.7657L65.7099 39.7657C65.6679 39.7745 65.6435 39.7797 65.66 39.771C65.42 39.895 65.194 39.924 64.97 39.753C64.907 39.706 64.263 39.051 64.327 38.996C64.3925 38.941 64.4615 38.8775 64.5334 38.8114C64.7685 38.595 65.0345 38.3502 65.311 38.282C65.871 38.144 66.338 39.266 66.421 39.664C66.499 40.039 66.488 40.434 66.371 40.8C66.3509 40.8631 66.321 40.9229 66.2926 40.9797C66.208 41.1489 66.1374 41.2902 66.383 41.404L67.766 39.508C67.6757 39.5126 67.586 39.4907 67.508 39.445C66.9243 39.0551 65.6574 37.416 64.9615 36.5156ZM56.304 31.317C56.8592 30.8446 57.5533 30.5662 58.281 30.524C59.439 30.458 60.613 30.988 61.371 31.998C62.483 33.482 62.301 35.559 60.871 36.764C59.186 37.965 57.104 37.772 55.812 36.07C54.688 34.592 54.874 32.52 56.304 31.317ZM59.471 31.91C60.42 31.802 60.974 32.709 60.57 33.678C60.15 34.658 59.14 35.667 58.146 36.058C56.966 36.523 56.135 35.521 56.615 34.401C57.037 33.417 58.045 32.418 59.041 32.021C59.191 31.962 59.335 31.926 59.471 31.911V31.91ZM56.9743 27.3709C56.8816 27.3321 56.7855 27.292 56.688 27.28V27.279C55.9923 27.1958 55.2093 27.3412 54.4705 27.4784H54.4705L54.4705 27.4784C54.1877 27.5309 53.9114 27.5822 53.649 27.619C53.002 27.71 51.477 29.195 51.379 29.475C51.3685 29.5138 51.3897 29.6015 51.414 29.7024C51.4687 29.929 51.5395 30.2225 51.305 30.181C51.2258 30.1662 51.0359 29.9081 50.9094 29.7361L50.9093 29.736L50.9092 29.7359C50.8649 29.6756 50.8283 29.6259 50.807 29.601L49.19 27.681C49.3333 27.4781 49.4542 27.5471 49.5938 27.6268C49.7046 27.69 49.8271 27.76 49.982 27.706C50.2482 27.6126 51.1602 26.8353 51.5918 26.4675L51.5922 26.4671L51.5944 26.4652C51.6513 26.4168 51.6997 26.3755 51.737 26.344C52.2908 25.8782 52.7777 24.171 52.9369 23.6127C52.9623 23.5238 52.9793 23.464 52.987 23.443C53.048 23.273 53.069 22.298 53.045 22.318C53.2556 22.1443 53.4 22.3575 53.5464 22.5735C53.5905 22.6386 53.6347 22.7039 53.681 22.759L55.461 24.871C55.3288 25.0609 55.2068 25.0053 55.072 24.944C54.9428 24.8852 54.8018 24.821 54.629 24.963C54.4704 25.0939 54.0892 26.1921 53.9162 26.6903L53.877 26.803C53.9153 26.7962 53.9636 26.788 54.0199 26.7784L54.02 26.7784C54.5525 26.6876 55.7961 26.4755 55.939 26.225C56.0064 26.1066 55.967 26.0054 55.9317 25.9146C55.8853 25.7952 55.8458 25.6938 56.065 25.595L57.512 27.307C57.3596 27.5318 57.1746 27.4545 56.9743 27.3709ZM80.927 34.049C81.051 34.47 81.121 34.914 81.067 35.354C80.997 35.92 80.431 37.252 79.656 36.873C79.1216 36.6107 78.6342 36.1625 78.1677 35.7336C77.9707 35.5525 77.7775 35.3748 77.586 35.216C78.106 34.608 78.564 34.081 79.439 34.376C79.679 34.456 79.885 34.352 79.633 34.206C79.5831 34.1769 79.4791 34.1129 79.3429 34.0289C78.7618 33.6707 77.593 32.9503 77.516 33.037C77.4365 33.1288 77.5001 33.2537 77.5744 33.3995C77.6636 33.5745 77.7681 33.7796 77.659 33.994C77.5442 34.2189 77.3693 34.4198 77.199 34.6153C77.1498 34.6718 77.1009 34.7279 77.054 34.784C76.9858 34.7264 76.9108 34.6683 76.8343 34.609L76.8341 34.6089L76.834 34.6087C76.3872 34.2624 75.8884 33.8757 76.369 33.32C76.721 32.892 77.18 32.56 77.73 32.45C77.8595 32.4236 78.0457 32.447 78.2374 32.471C78.5907 32.5153 78.9627 32.562 79.032 32.304C78.609 32.1 78.186 31.8971 77.763 31.6942C77.481 31.5589 77.199 31.4236 76.917 31.288C77.0094 31.7056 75.5517 33.3469 74.711 34.2935C74.505 34.5255 74.336 34.7157 74.236 34.836C74.2166 34.859 74.1781 34.8971 74.1317 34.943C74.001 35.0721 73.808 35.263 73.805 35.353C73.7996 35.6048 74.1345 35.4514 74.2156 35.4142L74.2157 35.4142C74.2241 35.4104 74.2298 35.4078 74.232 35.407C74.547 35.291 78.656 38.724 78.758 38.959C78.7887 39.045 78.7582 39.1331 78.7306 39.2128C78.6998 39.3017 78.6726 39.3802 78.738 39.434C78.7377 39.4337 78.7378 39.4338 78.7384 39.4344L78.7409 39.4366C78.7623 39.4563 78.8878 39.5719 78.903 39.554C78.9454 39.5031 79.0561 39.3602 79.2135 39.1569L79.2135 39.1569L79.2136 39.1568C79.9956 38.1472 81.9317 35.6478 82.392 35.518C81.875 34.7304 81.3627 33.9397 80.855 33.146C80.5683 33.2718 80.7035 33.5544 80.8253 33.8089C80.8662 33.8945 80.9056 33.9768 80.927 34.049ZM73.2113 39.2409C73.9324 38.7948 75.7731 37.6562 76.927 38.401C78.059 39.343 77.812 40.881 77.059 41.981C76.698 42.506 76.242 42.945 75.765 43.364L75.7338 43.3902C75.3836 43.6836 75.1251 43.9001 75.059 44.379L72.799 42.732C72.9116 42.4365 73.1371 42.5631 73.3597 42.688C73.4415 42.7339 73.5228 42.7796 73.598 42.804C73.989 42.933 74.414 42.969 74.814 42.863C75.498 42.681 76.191 42.04 76.374 41.344C76.602 40.479 75.753 40.217 75.107 40.52C74.796 40.6659 74.4992 40.8614 74.2066 41.0541C74.0899 41.131 73.974 41.2073 73.858 41.28C73.205 41.687 72.437 41.995 71.7 41.611C71.052 41.275 70.611 40.621 70.611 39.885C70.611 39.088 71.064 38.39 71.598 37.835C71.7222 37.7064 71.8723 37.5799 72.0268 37.4497C72.4297 37.1102 72.8629 36.7451 72.946 36.25C73.501 36.626 74.056 37.001 74.613 37.376C74.7051 37.4389 74.6888 37.46 74.6383 37.5256L74.6383 37.5257C74.623 37.5456 74.6045 37.5695 74.585 37.6C74.5378 37.6738 74.2147 37.6375 73.9506 37.6079L73.9505 37.6079C73.8174 37.5929 73.6993 37.5796 73.639 37.583C73.043 37.619 72.443 37.88 72.139 38.42C71.789 39.042 72.276 39.714 72.951 39.395C73.0004 39.3714 73.09 39.316 73.2113 39.2409ZM94.544 10.336C94.5089 10.352 94.4786 10.3768 94.456 10.408L93.666 11.358L92.852 12.34C92.824 12.3741 92.7956 12.405 92.7692 12.4337L92.7691 12.4338C92.6376 12.577 92.5572 12.6646 92.827 12.807C93.37 12.535 96.345 17.575 96.079 18.299C95.609 18.543 91.589 15.016 91.481 14.783C91.4717 14.7561 91.4819 14.6911 91.4943 14.613C91.5255 14.4159 91.5699 14.1349 91.345 14.17C91.2346 14.187 91.0221 14.4988 90.8812 14.7056L90.8812 14.7057L90.8811 14.7057L90.881 14.706C90.8318 14.7782 90.7913 14.8375 90.767 14.867L90.19 15.562C90.3209 15.7528 90.4165 15.7077 90.5354 15.6515C90.6127 15.615 90.6999 15.5738 90.813 15.59C91.0411 15.6358 91.8569 16.3229 92.1904 16.6039L92.1905 16.6039L92.1905 16.604L92.1906 16.604L92.269 16.67C92.1125 16.6757 91.8669 16.6871 91.6029 16.6994C91.0743 16.724 90.4721 16.752 90.364 16.744C90.0282 16.7858 89.987 16.6382 89.9405 16.4717C89.9059 16.3477 89.8684 16.2133 89.704 16.139L88.226 17.934L87.366 18.977C87.3619 18.982 87.3583 18.986 87.3553 18.9895C87.3476 18.9982 87.3438 19.0025 87.3443 19.0063C87.3447 19.0101 87.3494 19.0134 87.3588 19.0198C87.3675 19.0258 87.3801 19.0346 87.397 19.049C87.4271 19.0737 87.45 19.0937 87.4682 19.1094C87.5079 19.1439 87.5242 19.1581 87.5406 19.1581C87.5521 19.158 87.5636 19.151 87.5831 19.1389C87.6139 19.1199 87.6647 19.0886 87.767 19.053C88.095 18.938 92.023 22.253 92.165 22.422C92.2768 22.5552 92.2658 22.6986 92.2557 22.8303C92.2436 22.9874 92.2329 23.128 92.433 23.215L93.601 21.797C93.6136 21.7817 93.6249 21.7699 93.6342 21.7602C93.6687 21.7244 93.6754 21.7174 93.614 21.667C93.4611 21.5411 93.3828 21.5963 93.286 21.6646C93.2075 21.72 93.1167 21.784 92.964 21.767C92.6647 21.7177 90.7465 20.1176 89.6045 19.165L89.6033 19.164L89.599 19.1604L89.5975 19.1592L89.5914 19.1541C89.4186 19.01 89.264 18.881 89.136 18.775L94.458 18.578C94.653 18.571 95.198 19.159 95.153 19.368C95.1371 19.4427 95.1027 19.5055 95.0723 19.5611C95.0033 19.6871 94.9545 19.7761 95.187 19.883C95.3104 19.7346 95.4366 19.5866 95.563 19.4383L95.563 19.4382L95.5631 19.4382L95.5632 19.4381L95.5633 19.438L95.5633 19.4379C95.7555 19.2125 95.9481 18.9865 96.132 18.758L96.28 18.574C96.3377 18.5279 96.3839 18.469 96.415 18.402L96.525 18.265C96.5515 18.2347 96.5838 18.1982 96.6203 18.1568L96.6227 18.1541L96.6229 18.1539C96.9666 17.7646 97.6835 16.9528 97.587 16.869C97.4471 16.7477 97.3406 16.8053 97.2265 16.8671C97.096 16.9377 96.9553 17.0138 96.743 16.834C96.5375 16.6867 96.0502 15.8484 95.8567 15.5155L95.808 15.432C95.6546 15.1715 96.0886 14.9117 96.348 14.7565C96.3793 14.7378 96.4081 14.7205 96.433 14.705C96.937 14.392 98.54 13.938 98.693 14.932C98.7038 15.004 98.6724 15.0803 98.6429 15.1518C98.604 15.2461 98.5686 15.3321 98.638 15.389C98.6433 15.3935 98.6514 15.402 98.6613 15.4123C98.7035 15.4564 98.7792 15.5353 98.814 15.494L100.956 12.918C100.936 12.9011 100.915 12.8799 100.893 12.8581C100.847 12.8115 100.797 12.7617 100.746 12.742C100.272 13.215 95.28 11.222 94.916 10.947C94.8397 10.9167 94.793 10.7721 94.7473 10.6306C94.6936 10.4644 94.6413 10.3025 94.544 10.336ZM96.606 13.849C95.845 13.527 95.083 13.207 94.319 12.889L95.335 14.637C95.5237 14.4503 95.7319 14.2843 95.956 14.142H95.958C96.159 14.015 96.376 13.913 96.606 13.849ZM87.731 20.642C86.624 20.566 85.501 21.052 84.708 21.959C83.473 23.459 83.596 25.637 85.101 26.904C86.619 28.154 88.781 27.836 90.017 26.354C91.249 24.858 91.164 22.674 89.632 21.42C89.0974 20.9654 88.4319 20.6928 87.732 20.642H87.731ZM88.024 22.904C87.592 22.615 86.904 22.239 86.282 22.201C85.909 22.178 85.559 22.278 85.302 22.592C84.487 23.588 85.764 24.718 86.509 25.256C87.253 25.793 88.633 26.57 89.433 25.73C89.4395 25.7245 89.4455 25.7185 89.451 25.712C89.584 25.545 89.549 25.584 89.501 25.642C90.238 24.591 88.804 23.425 88.024 22.904ZM83.155 26.481C81.941 26.414 80.752 26.977 79.856 28.057C79.3323 28.6859 78.81 29.3161 78.2879 29.9461L77.934 30.373C78.0575 30.5528 78.1923 30.515 78.3428 30.4729C78.4702 30.4372 78.6088 30.3984 78.761 30.486C79.044 30.649 82.814 33.798 82.876 33.971C82.9225 34.1012 82.8965 34.1856 82.8745 34.2573C82.8463 34.3491 82.8245 34.4199 82.97 34.539C83.081 34.632 85.914 31.134 86.173 30.519C86.621 29.38 86.264 28.132 85.353 27.344C85.426 27.404 85.53 27.489 85.311 27.307C84.621 26.789 83.884 26.52 83.155 26.48V26.481ZM82.368 28.098C82.286 28.077 82.197 28.064 82.102 28.061V28.06C81.441 28.035 80.52 28.418 80.045 28.939C79.886 29.114 83.867 32.338 84.065 32.148C84.2477 31.9726 84.3215 31.9091 84.3621 31.8742C84.411 31.8321 84.4117 31.8315 84.497 31.726C85.752 30.213 83.79 28.461 82.368 28.098Z" fill="white"/>
</svg>
